# xmcd
#
# Track frame offsets: 
#        150
#        18265
#        29212
#        41855
#        54237
#        67517
#        79257
#        92842
#        118402
#        133007
#        145195
#        157690
#        170462
#        181575
#        194900
#        207845
#        220605
#        235275
#        251325
#        263917
#        280497
#        293860
#        305560
#
# Disc length: 4242 seconds
#
# Revision: 2
# Processed by: cddbd v1.5.2PL0 Copyright (c) Steve Scherf et al.
# Submitted via: ExactAudioCopyFreeDBPlugin 1.0
#
DISCID=52109017
DTITLE=Otis Clay - The Best of Otis Clay:  The Hi Records Years
DYEAR=1996
DGENRE=Soul
TTITLE0=I Can't Take It
TTITLE1=Let Me Be the One
TTITLE2=Trying to Live My Life Without You
TTITLE3=You Can't Keep Running from My Love
TTITLE4=You Did Something to Me
TTITLE5=I Die a Little Each Day
TTITLE6=She's About a Mover
TTITLE7=I Love You, I Need You
TTITLE8=Slow and Easy
TTITLE9=Too Many Hands
TTITLE10=I Didn't Know the Meaning of Pain
TTITLE11=If I Could Reach Out
TTITLE12=Brand New Thing
TTITLE13=Hard Working Woman
TTITLE14=Home is Where the Heart Is
TTITLE15=I Can't Make it Alone
TTITLE16=Precious Precious
TTITLE17=Is it Over
TTITLE18=The Woman Don't Live Here No More
TTITLE19=That's How it is (When You're in Love)
TTITLE20=Holding on to a Dying Love
TTITLE21=I'm Qualified
TTITLE22=I've Got to Find a Way (To Get You Back)
EXTD=
EXTT0=
EXTT1=
EXTT2=
EXTT3=
EXTT4=
EXTT5=
EXTT6=
EXTT7=
EXTT8=
EXTT9=
EXTT10=
EXTT11=
EXTT12=
EXTT13=
EXTT14=
EXTT15=
EXTT16=
EXTT17=
EXTT18=
EXTT19=
EXTT20=
EXTT21=
EXTT22=
PLAYORDER=
